<svg width="224" height="80" viewBox="0 0 224 80" fill="none" xmlns="http://www.w3.org/2000/svg">
<path fill-rule="evenodd" clip-rule="evenodd" d="M17.5 5C27.1649 5 35 12.835 35 22.5V5H52.5C62.1649 5 70 12.835 70 22.5C70 32.1649 62.1649 40 52.5 40C62.1649 40 70 47.8351 70 57.5C70 62.299 68.0682 66.6469 64.9399 69.8085L64.8744 69.8744L64.8163 69.9322C61.6541 73.065 57.3031 75 52.5 75C47.7297 75 43.4051 73.0913 40.2483 69.9959C40.2073 69.9556 40.1663 69.915 40.1256 69.8744C40.0872 69.8361 40.0491 69.7976 40.0111 69.7589C36.9117 66.6016 35 62.274 35 57.5C35 67.1649 27.1649 75 17.5 75C7.83501 75 0 67.1649 0 57.5V40H17.5C7.83501 40 0 32.1649 0 22.5C0 12.835 7.83501 5 17.5 5ZM31.5 22.5C31.5 30.232 25.232 36.5 17.5 36.5V8.5C25.232 8.5 31.5 14.768 31.5 22.5ZM66.5 57.5C66.5 49.768 60.232 43.5 52.5 43.5C44.768 43.5 38.5 49.768 38.5 57.5H66.5ZM3.5 43.5V57.5C3.5 65.232 9.76801 71.5 17.5 71.5C25.232 71.5 31.5 65.232 31.5 57.5V43.5H3.5ZM38.5 36.5V8.5H52.5C60.232 8.5 66.5 14.768 66.5 22.5C66.5 30.232 60.232 36.5 52.5 36.5H38.5Z" fill="#097B94"/>
<path d="M107.156 13.84H109.716L111.336 18.54L112.976 13.84H115.516L113.076 20.3L114.876 24.82L118.896 13.8H121.896L116.216 28H113.836L111.336 22.04L108.856 28H106.476L100.816 13.8H103.776L107.816 24.82L109.576 20.3L107.156 13.84ZM125.545 28.2C124.705 28.2 123.945 28.06 123.265 27.78C122.585 27.4867 122.005 27.0933 121.525 26.6C121.045 26.0933 120.672 25.52 120.405 24.88C120.152 24.2267 120.025 23.54 120.025 22.82C120.025 21.82 120.245 20.9067 120.685 20.08C121.138 19.2533 121.778 18.5933 122.605 18.1C123.445 17.5933 124.432 17.34 125.565 17.34C126.712 17.34 127.692 17.5933 128.505 18.1C129.318 18.5933 129.938 19.2533 130.365 20.08C130.805 20.8933 131.025 21.7733 131.025 22.72C131.025 22.88 131.018 23.0467 131.005 23.22C130.992 23.38 130.978 23.5133 130.965 23.62H122.865C122.918 24.1533 123.072 24.62 123.325 25.02C123.592 25.42 123.925 25.7267 124.325 25.94C124.738 26.14 125.178 26.24 125.645 26.24C126.178 26.24 126.678 26.1133 127.145 25.86C127.625 25.5933 127.952 25.2467 128.125 24.82L130.425 25.46C130.172 25.9933 129.805 26.4667 129.325 26.88C128.858 27.2933 128.305 27.62 127.665 27.86C127.025 28.0867 126.318 28.2 125.545 28.2ZM122.805 21.92H128.285C128.232 21.3867 128.078 20.9267 127.825 20.54C127.585 20.14 127.265 19.8333 126.865 19.62C126.465 19.3933 126.018 19.28 125.525 19.28C125.045 19.28 124.605 19.3933 124.205 19.62C123.818 19.8333 123.498 20.14 123.245 20.54C123.005 20.9267 122.858 21.3867 122.805 21.92ZM131.638 13.4H134.318V24.64C134.318 25.12 134.398 25.4467 134.558 25.62C134.718 25.78 134.938 25.86 135.218 25.86C135.431 25.86 135.651 25.8333 135.878 25.78C136.104 25.7267 136.304 25.66 136.478 25.58L136.838 27.62C136.478 27.7933 136.058 27.9267 135.577 28.02C135.098 28.1133 134.664 28.16 134.278 28.16C133.438 28.16 132.784 27.94 132.318 27.5C131.864 27.0467 131.638 26.4067 131.638 25.58V13.4ZM141.885 28.2C141.032 28.2 140.265 28.06 139.585 27.78C138.905 27.4867 138.325 27.0867 137.845 26.58C137.365 26.06 136.992 25.4733 136.725 24.82C136.472 24.1667 136.345 23.48 136.345 22.76C136.345 21.7733 136.565 20.8733 137.005 20.06C137.458 19.2333 138.098 18.5733 138.925 18.08C139.752 17.5867 140.732 17.34 141.865 17.34C142.998 17.34 143.972 17.5867 144.785 18.08C145.598 18.5733 146.205 19.22 146.605 20.02L143.985 20.82C143.758 20.4333 143.458 20.14 143.085 19.94C142.712 19.7267 142.298 19.62 141.845 19.62C141.338 19.62 140.872 19.7533 140.445 20.02C140.032 20.2733 139.705 20.64 139.465 21.12C139.225 21.5867 139.105 22.1333 139.105 22.76C139.105 23.3733 139.225 23.92 139.465 24.4C139.718 24.8667 140.052 25.24 140.465 25.52C140.878 25.7867 141.338 25.92 141.845 25.92C142.165 25.92 142.465 25.8667 142.745 25.76C143.038 25.6533 143.298 25.5067 143.525 25.32C143.752 25.1333 143.918 24.92 144.025 24.68L146.645 25.48C146.405 26 146.052 26.4667 145.585 26.88C145.132 27.2933 144.592 27.62 143.965 27.86C143.352 28.0867 142.658 28.2 141.885 28.2ZM152.037 28.2C151.183 28.2 150.417 28.06 149.737 27.78C149.057 27.4867 148.477 27.0867 147.997 26.58C147.53 26.0733 147.17 25.4933 146.917 24.84C146.663 24.1867 146.537 23.5 146.537 22.78C146.537 22.0467 146.663 21.3533 146.917 20.7C147.17 20.0467 147.53 19.4667 147.997 18.96C148.477 18.4533 149.057 18.06 149.737 17.78C150.417 17.4867 151.183 17.34 152.037 17.34C152.89 17.34 153.65 17.4867 154.317 17.78C154.997 18.06 155.577 18.4533 156.057 18.96C156.537 19.4667 156.897 20.0467 157.137 20.7C157.39 21.3533 157.517 22.0467 157.517 22.78C157.517 23.5 157.39 24.1867 157.137 24.84C156.897 25.4933 156.537 26.0733 156.057 26.58C155.59 27.0867 155.017 27.4867 154.337 27.78C153.657 28.06 152.89 28.2 152.037 28.2ZM149.297 22.78C149.297 23.3933 149.417 23.94 149.657 24.42C149.897 24.8867 150.223 25.2533 150.637 25.52C151.05 25.7867 151.517 25.92 152.037 25.92C152.543 25.92 153.003 25.7867 153.417 25.52C153.83 25.24 154.157 24.8667 154.397 24.4C154.65 23.92 154.777 23.3733 154.777 22.76C154.777 22.16 154.65 21.62 154.397 21.14C154.157 20.66 153.83 20.2867 153.417 20.02C153.003 19.7533 152.543 19.62 152.037 19.62C151.517 19.62 151.05 19.76 150.637 20.04C150.223 20.3067 149.897 20.68 149.657 21.16C149.417 21.6267 149.297 22.1667 149.297 22.78ZM174.605 28H171.925V22.12C171.925 21.2933 171.779 20.6867 171.485 20.3C171.205 19.9 170.812 19.7 170.305 19.7C169.785 19.7 169.285 19.9067 168.805 20.32C168.339 20.72 168.005 21.2467 167.805 21.9V28H165.125V22.12C165.125 21.28 164.979 20.6667 164.685 20.28C164.405 19.8933 164.012 19.7 163.505 19.7C162.985 19.7 162.485 19.9 162.005 20.3C161.539 20.7 161.205 21.2267 161.005 21.88V28H158.325V17.52H160.745V19.46C161.145 18.78 161.679 18.26 162.345 17.9C163.012 17.5267 163.779 17.34 164.645 17.34C165.512 17.34 166.185 17.5533 166.665 17.98C167.159 18.4067 167.472 18.9333 167.605 19.56C168.032 18.84 168.572 18.2933 169.225 17.92C169.892 17.5333 170.639 17.34 171.465 17.34C172.119 17.34 172.645 17.46 173.045 17.7C173.459 17.9267 173.779 18.24 174.005 18.64C174.232 19.0267 174.385 19.4667 174.465 19.96C174.559 20.4533 174.605 20.9533 174.605 21.46V28ZM180.799 28.2C179.959 28.2 179.199 28.06 178.519 27.78C177.839 27.4867 177.259 27.0933 176.779 26.6C176.299 26.0933 175.925 25.52 175.659 24.88C175.405 24.2267 175.279 23.54 175.279 22.82C175.279 21.82 175.499 20.9067 175.939 20.08C176.392 19.2533 177.032 18.5933 177.859 18.1C178.699 17.5933 179.685 17.34 180.819 17.34C181.965 17.34 182.945 17.5933 183.759 18.1C184.572 18.5933 185.192 19.2533 185.619 20.08C186.059 20.8933 186.279 21.7733 186.279 22.72C186.279 22.88 186.272 23.0467 186.259 23.22C186.245 23.38 186.232 23.5133 186.219 23.62H178.119C178.172 24.1533 178.325 24.62 178.579 25.02C178.845 25.42 179.179 25.7267 179.579 25.94C179.992 26.14 180.432 26.24 180.899 26.24C181.432 26.24 181.932 26.1133 182.399 25.86C182.879 25.5933 183.205 25.2467 183.379 24.82L185.679 25.46C185.425 25.9933 185.059 26.4667 184.579 26.88C184.112 27.2933 183.559 27.62 182.919 27.86C182.279 28.0867 181.572 28.2 180.799 28.2ZM178.059 21.92H183.539C183.485 21.3867 183.332 20.9267 183.079 20.54C182.839 20.14 182.519 19.8333 182.119 19.62C181.719 19.3933 181.272 19.28 180.779 19.28C180.299 19.28 179.859 19.3933 179.459 19.62C179.072 19.8333 178.752 20.14 178.499 20.54C178.259 20.9267 178.112 21.3867 178.059 21.92ZM196.996 27.46C196.769 27.5533 196.496 27.66 196.176 27.78C195.856 27.9 195.509 27.9933 195.136 28.06C194.776 28.14 194.409 28.18 194.036 28.18C193.543 28.18 193.089 28.0933 192.676 27.92C192.263 27.7467 191.929 27.4733 191.676 27.1C191.436 26.7133 191.316 26.2133 191.316 25.6V19.58H189.936V17.52H191.316V14.12H193.996V17.52H196.196V19.58H193.996V24.7C194.009 25.06 194.109 25.32 194.296 25.48C194.483 25.64 194.716 25.72 194.996 25.72C195.276 25.72 195.549 25.6733 195.816 25.58C196.083 25.4867 196.296 25.4067 196.456 25.34L196.996 27.46ZM202.115 28.2C201.261 28.2 200.495 28.06 199.815 27.78C199.135 27.4867 198.555 27.0867 198.075 26.58C197.608 26.0733 197.248 25.4933 196.995 24.84C196.741 24.1867 196.615 23.5 196.615 22.78C196.615 22.0467 196.741 21.3533 196.995 20.7C197.248 20.0467 197.608 19.4667 198.075 18.96C198.555 18.4533 199.135 18.06 199.815 17.78C200.495 17.4867 201.261 17.34 202.115 17.34C202.968 17.34 203.728 17.4867 204.395 17.78C205.075 18.06 205.655 18.4533 206.135 18.96C206.615 19.4667 206.975 20.0467 207.215 20.7C207.468 21.3533 207.595 22.0467 207.595 22.78C207.595 23.5 207.468 24.1867 207.215 24.84C206.975 25.4933 206.615 26.0733 206.135 26.58C205.668 27.0867 205.095 27.4867 204.415 27.78C203.735 28.06 202.968 28.2 202.115 28.2ZM199.375 22.78C199.375 23.3933 199.495 23.94 199.735 24.42C199.975 24.8867 200.301 25.2533 200.715 25.52C201.128 25.7867 201.595 25.92 202.115 25.92C202.621 25.92 203.081 25.7867 203.495 25.52C203.908 25.24 204.235 24.8667 204.475 24.4C204.728 23.92 204.855 23.3733 204.855 22.76C204.855 22.16 204.728 21.62 204.475 21.14C204.235 20.66 203.908 20.2867 203.495 20.02C203.081 19.7533 202.621 19.62 202.115 19.62C201.595 19.62 201.128 19.76 200.715 20.04C200.301 20.3067 199.975 20.68 199.735 21.16C199.495 21.6267 199.375 22.1667 199.375 22.78ZM95.5346 47.344H99.6306L102.223 54.864L104.847 47.344H108.911L105.007 57.68L107.887 64.912L114.319 47.28H119.119L110.031 70H106.223L102.223 60.464L98.2546 70H94.4466L85.3906 47.28H90.1266L96.5906 64.912L99.4066 57.68L95.5346 47.344ZM136.222 66.128V70H120.446V47.28H135.934V51.152H124.862V56.624H134.43V60.208H124.862V66.128H136.222ZM143.976 58.48C143.976 57.0933 144.222 55.7387 144.712 54.416C145.224 53.072 145.96 51.856 146.92 50.768C147.88 49.6587 149.054 48.784 150.44 48.144C151.827 47.4827 153.406 47.152 155.176 47.152C157.267 47.152 159.07 47.6107 160.584 48.528C162.12 49.4453 163.262 50.64 164.008 52.112L160.616 54.448C160.232 53.5947 159.731 52.9227 159.112 52.432C158.494 51.92 157.832 51.568 157.128 51.376C156.424 51.1627 155.731 51.056 155.048 51.056C153.939 51.056 152.968 51.28 152.136 51.728C151.326 52.176 150.643 52.7627 150.088 53.488C149.534 54.2133 149.118 55.024 148.84 55.92C148.584 56.816 148.456 57.712 148.456 58.608C148.456 59.6107 148.616 60.5813 148.936 61.52C149.256 62.4373 149.704 63.2587 150.28 63.984C150.878 64.688 151.582 65.2533 152.392 65.68C153.224 66.0853 154.131 66.288 155.112 66.288C155.816 66.288 156.531 66.1707 157.256 65.936C157.982 65.7013 158.654 65.328 159.272 64.816C159.891 64.304 160.371 63.6427 160.712 62.832L164.328 64.912C163.88 66.0427 163.144 67.0027 162.12 67.792C161.118 68.5813 159.987 69.1787 158.728 69.584C157.47 69.9893 156.222 70.192 154.984 70.192C153.363 70.192 151.88 69.8613 150.536 69.2C149.192 68.5173 148.03 67.6213 147.048 66.512C146.088 65.3813 145.331 64.1227 144.776 62.736C144.243 61.328 143.976 59.9093 143.976 58.48ZM172.153 47.28H176.633L184.985 70H180.441L178.329 64.336H170.393L168.313 70H163.769L172.153 47.28ZM177.529 61.232L174.393 51.856L171.129 61.232H177.529ZM186.477 70V47.28H196.525C197.571 47.28 198.531 47.4933 199.405 47.92C200.301 48.3467 201.069 48.9227 201.709 49.648C202.371 50.3733 202.872 51.184 203.213 52.08C203.576 52.976 203.757 53.8933 203.757 54.832C203.757 55.792 203.587 56.72 203.245 57.616C202.925 58.4907 202.456 59.2587 201.837 59.92C201.219 60.5813 200.493 61.0933 199.661 61.456L204.845 70H199.981L195.309 62.384H190.893V70H186.477ZM190.893 58.512H196.429C196.984 58.512 197.475 58.352 197.901 58.032C198.328 57.6907 198.669 57.2427 198.925 56.688C199.181 56.1333 199.309 55.5147 199.309 54.832C199.309 54.1067 199.16 53.4773 198.861 52.944C198.563 52.3893 198.179 51.952 197.709 51.632C197.261 51.312 196.771 51.152 196.237 51.152H190.893V58.512ZM222.535 66.128V70H206.759V47.28H222.247V51.152H211.175V56.624H220.743V60.208H211.175V66.128H222.535Z" fill="#097B94"/>
</svg>
